<svg xmlns="http://www.w3.org/2000/svg" width="661.851806640625" height="731.432861328125" viewBox="-350.4301452636719 -196.13536071777344 661.851806640625 731.432861328125"><title>Neo4j Graph Visualization</title><desc>Created using Neo4j (http://www.neo4j.com/)</desc><g class="layer relationships"><g class="relationship" transform="translate(-321.43015995254484 145.93604921677192) rotate(374.4661967205329)"><path class="b-outline" fill="#A5ABB6" stroke="none" d="M 25 0.5 L 88.42349152021849 0.5 L 88.42349152021849 -0.5 L 25 -0.5 Z M 143.77114777021848 0.5 L 207.19463929043698 0.5 L 207.19463929043698 3.5 L 214.19463929043698 0 L 207.19463929043698 -3.5 L 207.19463929043698 -0.5 L 143.77114777021848 -0.5 Z"/><text text-anchor="middle" pointer-events="none" font-size="8px" fill="#000000" x="116.09731964521849" y="3" font-family="Helvetica Neue, Helvetica, Arial, sans-serif">HAS_GENRE</text></g><g class="relationship" transform="translate(-321.43015995254484 145.93604921677192) rotate(398.79677520166433)"><path class="b-outline" fill="#A5ABB6" stroke="none" d="M 25 0.5 L 200.76637884613456 0.5 L 200.76637884613456 -0.5 L 25 -0.5 Z M 252.39919134613456 0.5 L 428.1655701922691 0.5 L 428.1655701922691 3.5 L 435.1655701922691 0 L 428.1655701922691 -3.5 L 428.1655701922691 -0.5 L 252.39919134613456 -0.5 Z"/><text text-anchor="middle" pointer-events="none" font-size="8px" fill="#000000" x="226.58278509613456" y="3" font-family="Helvetica Neue, Helvetica, Arial, sans-serif">FEATURING</text></g><g class="relationship" transform="translate(37.210567309781304 434.2573643135332) rotate(265.2936374146608)"><path class="b-outline" fill="#A5ABB6" stroke="none" d="M 25 0.5 L 74.36994986379482 0.5 L 74.36994986379482 -0.5 L 25 -0.5 Z M 129.71760611379483 0.5 L 179.08755597758963 0.5 L 179.08755597758963 3.5 L 186.08755597758963 0 L 179.08755597758963 -3.5 L 179.08755597758963 -0.5 L 129.71760611379483 -0.5 Z"/><text text-anchor="middle" pointer-events="none" font-size="8px" fill="#000000" x="102.04377798879482" y="3" transform="rotate(180 102.04377798879482 0)" font-family="Helvetica Neue, Helvetica, Arial, sans-serif">HAS_GENRE</text></g><g class="relationship" transform="translate(-321.43015995254484 145.93604921677192) rotate(376.0951922189593)"><path class="b-outline" fill="#A5ABB6" stroke="none" d="M 25 0.5 L 47.38089670042605 0.5 L 47.38089670042605 -0.5 L 25 -0.5 Z M 87.16605295042605 0.5 L 109.5469496508521 0.5 L 109.5469496508521 3.5 L 116.5469496508521 0 L 109.5469496508521 -3.5 L 109.5469496508521 -0.5 L 87.16605295042605 -0.5 Z"/><text text-anchor="middle" pointer-events="none" font-size="8px" fill="#000000" x="67.27347482542605" y="3" font-family="Helvetica Neue, Helvetica, Arial, sans-serif">HAS_HIT</text></g><g class="relationship" transform="translate(37.210567309781304 434.2573643135332) rotate(228.2077815949899)"><path class="b-outline" fill="#A5ABB6" stroke="none" d="M 25 0.5 L 143.6479727128888 0.5 L 143.6479727128888 -0.5 L 25 -0.5 Z M 183.4331289628888 0.5 L 302.0811016757776 0.5 L 302.0811016757776 3.5 L 309.0811016757776 0 L 302.0811016757776 -3.5 L 302.0811016757776 -0.5 L 183.4331289628888 -0.5 Z"/><text text-anchor="middle" pointer-events="none" font-size="8px" fill="#000000" x="163.5405508378888" y="3" transform="rotate(180 163.5405508378888 0)" font-family="Helvetica Neue, Helvetica, Arial, sans-serif">HAS_HIT</text></g><g class="relationship" transform="translate(37.210567309781304 434.2573643135332) rotate(338.11532770841757)"><path class="b-outline" fill="#A5ABB6" stroke="none" d="M 25 0.5 L 36.967894469261125 0.5 L 36.967894469261125 -0.5 L 25 -0.5 Z M 92.31555071926113 0.5 L 104.28344518852225 0.5 L 104.28344518852225 3.5 L 111.28344518852225 0 L 104.28344518852225 -3.5 L 104.28344518852225 -0.5 L 92.31555071926113 -0.5 Z"/><text text-anchor="middle" pointer-events="none" font-size="8px" fill="#000000" x="64.64172259426113" y="3" font-family="Helvetica Neue, Helvetica, Arial, sans-serif">HAS_GENRE</text></g><g class="relationship" transform="translate(37.210567309781304 434.2573643135332) rotate(238.19846970442245)"><path class="b-outline" fill="#A5ABB6" stroke="none" d="M 25 0.5 L 50.624431498897835 0.5 L 50.624431498897835 -0.5 L 25 -0.5 Z M 105.97208774889783 0.5 L 131.59651924779567 0.5 L 131.59651924779567 3.5 L 138.59651924779567 0 L 131.59651924779567 -3.5 L 131.59651924779567 -0.5 L 105.97208774889783 -0.5 Z"/><text text-anchor="middle" pointer-events="none" font-size="8px" fill="#000000" x="78.29825962389783" y="3" transform="rotate(180 78.29825962389783 0)" font-family="Helvetica Neue, Helvetica, Arial, sans-serif">HAS_GENRE</text></g><g class="relationship" transform="translate(37.210567309781304 434.2573643135332) rotate(288.66199394118826)"><path class="b-outline" fill="#A5ABB6" stroke="none" d="M 25 0.5 L 135.16247534371288 0.5 L 135.16247534371288 -0.5 L 25 -0.5 Z M 190.51013159371288 0.5 L 300.67260693742577 0.5 L 300.67260693742577 3.5 L 307.67260693742577 0 L 300.67260693742577 -3.5 L 300.67260693742577 -0.5 L 190.51013159371288 -0.5 Z"/><text text-anchor="middle" pointer-events="none" font-size="8px" fill="#000000" x="162.83630346871288" y="3" font-family="Helvetica Neue, Helvetica, Arial, sans-serif">HAS_GENRE</text></g><g class="relationship" transform="translate(-321.43015995254484 145.93604921677192) rotate(370.9861343205515)"><path class="b-outline" fill="#A5ABB6" stroke="none" d="M 25 0.5 L 200.4886639371778 0.5 L 200.4886639371778 -0.5 L 25 -0.5 Z M 252.1214764371778 0.5 L 427.6101403743556 0.5 L 427.6101403743556 3.5 L 434.6101403743556 0 L 427.6101403743556 -3.5 L 427.6101403743556 -0.5 L 252.1214764371778 -0.5 Z"/><text text-anchor="middle" pointer-events="none" font-size="8px" fill="#000000" x="226.3050701871778" y="3" font-family="Helvetica Neue, Helvetica, Arial, sans-serif">FEATURING</text></g><g class="relationship" transform="translate(129.7568574252728 233.52461288032185) rotate(520.9586887076224)"><path class="b-outline" fill="#A5ABB6" stroke="none" d="M 25 0.5 L 63.37882232166477 0.5 L 63.37882232166477 -0.5 L 25 -0.5 Z M 118.72647857166477 0.5 L 157.10530089332954 0.5 L 157.10530089332954 3.5 L 164.10530089332954 0 L 157.10530089332954 -3.5 L 157.10530089332954 -0.5 L 118.72647857166477 -0.5 Z"/><text text-anchor="middle" pointer-events="none" font-size="8px" fill="#000000" x="91.05265044666477" y="3" transform="rotate(180 91.05265044666477 0)" font-family="Helvetica Neue, Helvetica, Arial, sans-serif">HAS_GENRE</text></g><g class="relationship" transform="translate(129.7568574252728 233.52461288032185) rotate(188.72066263743966)"><path class="b-outline" fill="#A5ABB6" stroke="none" d="M 25 0.5 L 136.0448167980967 0.5 L 136.0448167980967 -0.5 L 25 -0.5 Z M 175.8299730480967 0.5 L 286.8747898461934 0.5 L 286.8747898461934 3.5 L 293.8747898461934 0 L 286.8747898461934 -3.5 L 286.8747898461934 -0.5 L 175.8299730480967 -0.5 Z"/><text text-anchor="middle" pointer-events="none" font-size="8px" fill="#000000" x="155.9373949230967" y="3" transform="rotate(180 155.9373949230967 0)" font-family="Helvetica Neue, Helvetica, Arial, sans-serif">HAS_HIT</text></g><g class="relationship" transform="translate(129.7568574252728 233.52461288032185) rotate(352.31574280175255)"><path class="b-outline" fill="#A5ABB6" stroke="none" d="M 25 0.5 L 45.85026419042583 0.5 L 45.85026419042583 -0.5 L 25 -0.5 Z M 101.19792044042583 0.5 L 122.04818463085167 0.5 L 122.04818463085167 3.5 L 129.04818463085167 0 L 122.04818463085167 -3.5 L 122.04818463085167 -0.5 L 101.19792044042583 -0.5 Z"/><text text-anchor="middle" pointer-events="none" font-size="8px" fill="#000000" x="73.52409231542583" y="3" font-family="Helvetica Neue, Helvetica, Arial, sans-serif">HAS_GENRE</text></g><g class="relationship" transform="translate(129.7568574252728 233.52461288032185) rotate(187.22484645966)"><path class="b-outline" fill="#A5ABB6" stroke="none" d="M 25 0.5 L 79.49283600736871 0.5 L 79.49283600736871 -0.5 L 25 -0.5 Z M 134.8404922573687 0.5 L 189.33332826473742 0.5 L 189.33332826473742 3.5 L 196.33332826473742 0 L 189.33332826473742 -3.5 L 189.33332826473742 -0.5 L 134.8404922573687 -0.5 Z"/><text text-anchor="middle" pointer-events="none" font-size="8px" fill="#000000" x="107.16666413236871" y="3" transform="rotate(180 107.16666413236871 0)" font-family="Helvetica Neue, Helvetica, Arial, sans-serif">HAS_GENRE</text></g><g class="relationship" transform="translate(-321.43015995254484 145.93604921677192) rotate(352.21793441113573)"><path class="b-outline" fill="#A5ABB6" stroke="none" d="M 25 0.5 L 124.0516268993006 0.5 L 124.0516268993006 -0.5 L 25 -0.5 Z M 175.6844393993006 0.5 L 274.7360662986012 0.5 L 274.7360662986012 3.5 L 281.7360662986012 0 L 274.7360662986012 -3.5 L 274.7360662986012 -0.5 L 175.6844393993006 -0.5 Z"/><text text-anchor="middle" pointer-events="none" font-size="8px" fill="#000000" x="149.8680331493006" y="3" font-family="Helvetica Neue, Helvetica, Arial, sans-serif">FEATURING</text></g><g class="relationship" transform="translate(-17.51904912234659 104.40231494817024) rotate(432.6141766142482)"><path class="b-outline" fill="#A5ABB6" stroke="none" d="M 25 0.5 L 31.425685670358845 0.5 L 31.425685670358845 -0.5 L 25 -0.5 Z M 86.77334192035885 0.5 L 93.19902759071769 0.5 L 93.19902759071769 3.5 L 100.19902759071769 0 L 93.19902759071769 -3.5 L 93.19902759071769 -0.5 L 86.77334192035885 -0.5 Z"/><text text-anchor="middle" pointer-events="none" font-size="8px" fill="#000000" x="59.099513795358845" y="3" font-family="Helvetica Neue, Helvetica, Arial, sans-serif">HAS_GENRE</text></g><g class="relationship" transform="translate(-17.51904912234659 104.40231494817024) rotate(514.3098205231997)"><path class="b-outline" fill="#A5ABB6" stroke="none" d="M 25 0.5 L 69.77293802360545 0.5 L 69.77293802360545 -0.5 L 25 -0.5 Z M 109.55809427360545 0.5 L 154.3310322972109 0.5 L 154.3310322972109 3.5 L 161.3310322972109 0 L 154.3310322972109 -3.5 L 154.3310322972109 -0.5 L 109.55809427360545 -0.5 Z"/><text text-anchor="middle" pointer-events="none" font-size="8px" fill="#000000" x="89.66551614860545" y="3" transform="rotate(180 89.66551614860545 0)" font-family="Helvetica Neue, Helvetica, Arial, sans-serif">HAS_HIT</text></g><g class="relationship" transform="translate(-17.51904912234659 104.40231494817024) rotate(332.8216066262254)"><path class="b-outline" fill="#A5ABB6" stroke="none" d="M 25 0.5 L 58.99884671047545 0.5 L 58.99884671047545 -0.5 L 25 -0.5 Z M 114.34650296047545 0.5 L 148.3453496709509 0.5 L 148.3453496709509 3.5 L 155.3453496709509 0 L 148.3453496709509 -3.5 L 148.3453496709509 -0.5 L 114.34650296047545 -0.5 Z"/><text text-anchor="middle" pointer-events="none" font-size="8px" fill="#000000" x="86.67267483547545" y="3" font-family="Helvetica Neue, Helvetica, Arial, sans-serif">HAS_GENRE</text></g><g class="relationship" transform="translate(-17.51904912234659 104.40231494817024) rotate(459.3685909615216)"><path class="b-outline" fill="#A5ABB6" stroke="none" d="M 25 0.5 L 65.52491632033251 0.5 L 65.52491632033251 -0.5 L 25 -0.5 Z M 120.87257257033251 0.5 L 161.39748889066502 0.5 L 161.39748889066502 3.5 L 168.39748889066502 0 L 161.39748889066502 -3.5 L 161.39748889066502 -0.5 L 120.87257257033251 -0.5 Z"/><text text-anchor="middle" pointer-events="none" font-size="8px" fill="#000000" x="93.19874444533251" y="3" transform="rotate(180 93.19874444533251 0)" font-family="Helvetica Neue, Helvetica, Arial, sans-serif">HAS_GENRE</text></g><g class="relationship" transform="translate(-17.51904912234659 104.40231494817024) rotate(302.90773141421164)"><path class="b-outline" fill="#A5ABB6" stroke="none" d="M 25 0.5 L 67.0341160103894 0.5 L 67.0341160103894 -0.5 L 25 -0.5 Z M 122.3817722603894 0.5 L 164.4158882707788 0.5 L 164.4158882707788 3.5 L 171.4158882707788 0 L 164.4158882707788 -3.5 L 164.4158882707788 -0.5 L 122.3817722603894 -0.5 Z"/><text text-anchor="middle" pointer-events="none" font-size="8px" fill="#000000" x="94.7079441353894" y="3" font-family="Helvetica Neue, Helvetica, Arial, sans-serif">HAS_GENRE</text></g><g class="relationship" transform="translate(-17.51904912234659 104.40231494817024) rotate(365.20174567810795)"><path class="b-outline" fill="#A5ABB6" stroke="none" d="M 25 0.5 L 49.74930753340455 0.5 L 49.74930753340455 -0.5 L 25 -0.5 Z M 105.09696378340455 0.5 L 129.8462713168091 0.5 L 129.8462713168091 3.5 L 136.8462713168091 0 L 129.8462713168091 -3.5 L 129.8462713168091 -0.5 L 105.09696378340455 -0.5 Z"/><text text-anchor="middle" pointer-events="none" font-size="8px" fill="#000000" x="77.42313565840455" y="3" font-family="Helvetica Neue, Helvetica, Arial, sans-serif">HAS_GENRE</text></g><g class="relationship" transform="translate(-321.43015995254484 145.93604921677192) rotate(332.56196994785)"><path class="b-outline" fill="#A5ABB6" stroke="none" d="M 25 0.5 L 94.64731080607936 0.5 L 94.64731080607936 -0.5 L 25 -0.5 Z M 146.28012330607936 0.5 L 215.92743411215872 0.5 L 215.92743411215872 3.5 L 222.92743411215872 0 L 215.92743411215872 -3.5 L 215.92743411215872 -0.5 L 146.28012330607936 -0.5 Z"/><text text-anchor="middle" pointer-events="none" font-size="8px" fill="#000000" x="120.46371705607936" y="3" font-family="Helvetica Neue, Helvetica, Arial, sans-serif">FEATURING</text></g><g class="relationship" transform="translate(-101.39214930982759 31.693822094598527) rotate(417.745364887969)"><path class="b-outline" fill="#A5ABB6" stroke="none" d="M 25 0.5 L 82.45464669014531 0.5 L 82.45464669014531 -0.5 L 25 -0.5 Z M 137.8023029401453 0.5 L 195.25694963029062 0.5 L 195.25694963029062 3.5 L 202.25694963029062 0 L 195.25694963029062 -3.5 L 195.25694963029062 -0.5 L 137.8023029401453 -0.5 Z"/><text text-anchor="middle" pointer-events="none" font-size="8px" fill="#000000" x="110.12847481514531" y="3" font-family="Helvetica Neue, Helvetica, Arial, sans-serif">HAS_GENRE</text></g><g class="relationship" transform="translate(-101.39214930982759 31.693822094598527) rotate(357.80789136016165)"><path class="b-outline" fill="#A5ABB6" stroke="none" d="M 25 0.5 L 49.14339248245652 0.5 L 49.14339248245652 -0.5 L 25 -0.5 Z M 88.92854873245652 0.5 L 113.07194121491304 0.5 L 113.07194121491304 3.5 L 120.07194121491304 0 L 113.07194121491304 -3.5 L 113.07194121491304 -0.5 L 88.92854873245652 -0.5 Z"/><text text-anchor="middle" pointer-events="none" font-size="8px" fill="#000000" x="69.03597060745652" y="3" font-family="Helvetica Neue, Helvetica, Arial, sans-serif">HAS_HIT</text></g><g class="relationship" transform="translate(-101.39214930982759 31.693822094598527) rotate(438.7558107127178)"><path class="b-outline" fill="#A5ABB6" stroke="none" d="M 25 0.5 L 103.16803502422931 0.5 L 103.16803502422931 -0.5 L 25 -0.5 Z M 158.5156912742293 0.5 L 236.68372629845862 0.5 L 236.68372629845862 3.5 L 243.68372629845862 0 L 236.68372629845862 -3.5 L 236.68372629845862 -0.5 L 158.5156912742293 -0.5 Z"/><text text-anchor="middle" pointer-events="none" font-size="8px" fill="#000000" x="130.8418631492293" y="3" font-family="Helvetica Neue, Helvetica, Arial, sans-serif">HAS_GENRE</text></g><g class="relationship" transform="translate(-101.39214930982759 31.693822094598527) rotate(379.6254274079104)"><path class="b-outline" fill="#A5ABB6" stroke="none" d="M 25 0.5 L 98.9093129419976 0.5 L 98.9093129419976 -0.5 L 25 -0.5 Z M 154.2569691919976 0.5 L 228.1662821339952 0.5 L 228.1662821339952 3.5 L 235.1662821339952 0 L 228.1662821339952 -3.5 L 228.1662821339952 -0.5 L 154.2569691919976 -0.5 Z"/><text text-anchor="middle" pointer-events="none" font-size="8px" fill="#000000" x="126.5831410669976" y="3" font-family="Helvetica Neue, Helvetica, Arial, sans-serif">HAS_GENRE</text></g><g class="relationship" transform="translate(-101.39214930982759 31.693822094598527) rotate(517.1548749840094)"><path class="b-outline" fill="#A5ABB6" stroke="none" d="M 25 0.5 L 43.228914041249425 0.5 L 43.228914041249425 -0.5 L 25 -0.5 Z M 98.57657029124942 0.5 L 116.80548433249885 0.5 L 116.80548433249885 3.5 L 123.80548433249885 0 L 116.80548433249885 -3.5 L 116.80548433249885 -0.5 L 98.57657029124942 -0.5 Z"/><text text-anchor="middle" pointer-events="none" font-size="8px" fill="#000000" x="70.90274216624942" y="3" transform="rotate(180 70.90274216624942 0)" font-family="Helvetica Neue, Helvetica, Arial, sans-serif">HAS_GENRE</text></g><g class="relationship" transform="translate(-101.39214930982759 31.693822094598527) rotate(311.6673490312782)"><path class="b-outline" fill="#A5ABB6" stroke="none" d="M 25 0.5 L 46.491640923343255 0.5 L 46.491640923343255 -0.5 L 25 -0.5 Z M 86.27679717334325 0.5 L 107.76843809668651 0.5 L 107.76843809668651 3.5 L 114.76843809668651 0 L 107.76843809668651 -3.5 L 107.76843809668651 -0.5 L 86.27679717334325 -0.5 Z"/><text text-anchor="middle" pointer-events="none" font-size="8px" fill="#000000" x="66.38421904834325" y="3" font-family="Helvetica Neue, Helvetica, Arial, sans-serif">HAS_HIT</text></g><g class="relationship" transform="translate(-101.39214930982759 31.693822094598527) rotate(284.2996011765259)"><path class="b-outline" fill="#A5ABB6" stroke="none" d="M 25 0.5 L 75.7763855247724 0.5 L 75.7763855247724 -0.5 L 25 -0.5 Z M 115.5615417747724 0.5 L 166.3379272995448 0.5 L 166.3379272995448 3.5 L 173.3379272995448 0 L 166.3379272995448 -3.5 L 166.3379272995448 -0.5 L 115.5615417747724 -0.5 Z"/><text text-anchor="middle" pointer-events="none" font-size="8px" fill="#000000" x="95.6689636497724" y="3" font-family="Helvetica Neue, Helvetica, Arial, sans-serif">HAS_HIT</text></g><g class="relationship" transform="translate(-101.39214930982759 31.693822094598527) rotate(478.7026999173235)"><path class="b-outline" fill="#A5ABB6" stroke="none" d="M 25 0.5 L 64.10014827790343 0.5 L 64.10014827790343 -0.5 L 25 -0.5 Z M 103.88530452790343 0.5 L 142.98545280580686 0.5 L 142.98545280580686 3.5 L 149.98545280580686 0 L 142.98545280580686 -3.5 L 142.98545280580686 -0.5 L 103.88530452790343 -0.5 Z"/><text text-anchor="middle" pointer-events="none" font-size="8px" fill="#000000" x="83.99272640290343" y="3" transform="rotate(180 83.99272640290343 0)" font-family="Helvetica Neue, Helvetica, Arial, sans-serif">HAS_HIT</text></g><g class="relationship" transform="translate(-101.39214930982759 31.693822094598527) rotate(266.4243200734745)"><path class="b-outline" fill="#A5ABB6" stroke="none" d="M 25 0.5 L 33.09418978226582 0.5 L 33.09418978226582 -0.5 L 25 -0.5 Z M 72.87934603226583 0.5 L 80.97353581453164 0.5 L 80.97353581453164 3.5 L 87.97353581453164 0 L 80.97353581453164 -3.5 L 80.97353581453164 -0.5 L 72.87934603226583 -0.5 Z"/><text text-anchor="middle" pointer-events="none" font-size="8px" fill="#000000" x="52.98676790726582" y="3" transform="rotate(180 52.98676790726582 0)" font-family="Helvetica Neue, Helvetica, Arial, sans-serif">HAS_HIT</text></g><g class="relationship" transform="translate(-101.39214930982759 31.693822094598527) rotate(255.87409141705962)"><path class="b-outline" fill="#A5ABB6" stroke="none" d="M 25 0.5 L 79.12187009596687 0.5 L 79.12187009596687 -0.5 L 25 -0.5 Z M 118.90702634596687 0.5 L 173.02889644193374 0.5 L 173.02889644193374 3.5 L 180.02889644193374 0 L 173.02889644193374 -3.5 L 173.02889644193374 -0.5 L 118.90702634596687 -0.5 Z"/><text text-anchor="middle" pointer-events="none" font-size="8px" fill="#000000" x="99.01444822096687" y="3" transform="rotate(180 99.01444822096687 0)" font-family="Helvetica Neue, Helvetica, Arial, sans-serif">HAS_HIT</text></g><g class="relationship" transform="translate(-101.39214930982759 31.693822094598527) rotate(228.27016140812117)"><path class="b-outline" fill="#A5ABB6" stroke="none" d="M 25 0.5 L 56.726553509552815 0.5 L 56.726553509552815 -0.5 L 25 -0.5 Z M 96.51170975955282 0.5 L 128.23826326910563 0.5 L 128.23826326910563 3.5 L 135.23826326910563 0 L 128.23826326910563 -3.5 L 128.23826326910563 -0.5 L 96.51170975955282 -0.5 Z"/><text text-anchor="middle" pointer-events="none" font-size="8px" fill="#000000" x="76.61913163455282" y="3" transform="rotate(180 76.61913163455282 0)" font-family="Helvetica Neue, Helvetica, Arial, sans-serif">HAS_HIT</text></g><g class="relationship" transform="translate(-101.39214930982759 31.693822094598527) rotate(193.02795306543055)"><path class="b-outline" fill="#A5ABB6" stroke="none" d="M 25 0.5 L 60.140906536662854 0.5 L 60.140906536662854 -0.5 L 25 -0.5 Z M 99.92606278666285 0.5 L 135.0669693233257 0.5 L 135.0669693233257 3.5 L 142.0669693233257 0 L 135.0669693233257 -3.5 L 135.0669693233257 -0.5 L 99.92606278666285 -0.5 Z"/><text text-anchor="middle" pointer-events="none" font-size="8px" fill="#000000" x="80.03348466166285" y="3" transform="rotate(180 80.03348466166285 0)" font-family="Helvetica Neue, Helvetica, Arial, sans-serif">HAS_HIT</text></g><g class="relationship" transform="translate(-321.43015995254484 145.93604921677192) rotate(399.04910542100737)"><path class="b-outline" fill="#A5ABB6" stroke="none" d="M 25 0.5 L 76.76661915550851 0.5 L 76.76661915550851 -0.5 L 25 -0.5 Z M 128.39943165550852 0.5 L 180.16605081101702 0.5 L 180.16605081101702 3.5 L 187.16605081101702 0 L 180.16605081101702 -3.5 L 180.16605081101702 -0.5 L 128.39943165550852 -0.5 Z"/><text text-anchor="middle" pointer-events="none" font-size="8px" fill="#000000" x="102.58302540550851" y="3" font-family="Helvetica Neue, Helvetica, Arial, sans-serif">FEATURING</text></g><g class="relationship" transform="translate(-156.66066479741835 279.59773625934895) rotate(368.2565551948973)"><path class="b-outline" fill="#A5ABB6" stroke="none" d="M 25 0.5 L 27.664967132035244 0.5 L 27.664967132035244 -0.5 L 25 -0.5 Z M 74.12199838203524 0.5 L 76.78696551407049 0.5 L 76.78696551407049 3.5 L 83.78696551407049 0 L 76.78696551407049 -3.5 L 76.78696551407049 -0.5 L 74.12199838203524 -0.5 Z"/><text text-anchor="middle" pointer-events="none" font-size="8px" fill="#000000" x="50.893482757035244" y="3" font-family="Helvetica Neue, Helvetica, Arial, sans-serif">HAS_GE…</text></g><g class="relationship" transform="translate(-156.66066479741835 279.59773625934895) rotate(253.05343692000065)"><path class="b-outline" fill="#A5ABB6" stroke="none" d="M 25 0.5 L 25.960507656141644 0.5 L 25.960507656141644 -0.5 L 25 -0.5 Z M 65.74566390614164 0.5 L 66.70617156228329 0.5 L 66.70617156228329 3.5 L 73.70617156228329 0 L 66.70617156228329 -3.5 L 66.70617156228329 -0.5 L 65.74566390614164 -0.5 Z"/><text text-anchor="middle" pointer-events="none" font-size="8px" fill="#000000" x="45.853085781141644" y="3" transform="rotate(180 45.853085781141644 0)" font-family="Helvetica Neue, Helvetica, Arial, sans-serif">HAS_HIT</text></g><g class="relationship" transform="translate(-156.66066479741835 279.59773625934895) rotate(331.87546564991004)"><path class="b-outline" fill="#A5ABB6" stroke="none" d="M 25 0.5 L 139.09082746766376 0.5 L 139.09082746766376 -0.5 L 25 -0.5 Z M 194.43848371766376 0.5 L 308.5293111853275 0.5 L 308.5293111853275 3.5 L 315.5293111853275 0 L 308.5293111853275 -3.5 L 308.5293111853275 -0.5 L 194.43848371766376 -0.5 Z"/><text text-anchor="middle" pointer-events="none" font-size="8px" fill="#000000" x="166.76465559266376" y="3" font-family="Helvetica Neue, Helvetica, Arial, sans-serif">HAS_GENRE</text></g><g class="relationship" transform="translate(-156.66066479741835 279.59773625934895) rotate(527.1192209797659)"><path class="b-outline" fill="#A5ABB6" stroke="none" d="M 25 0.5 L 45.67276293515451 0.5 L 45.67276293515451 -0.5 L 25 -0.5 Z M 101.02041918515451 0.5 L 121.69318212030902 0.5 L 121.69318212030902 3.5 L 128.69318212030902 0 L 121.69318212030902 -3.5 L 121.69318212030902 -0.5 L 101.02041918515451 -0.5 Z"/><text text-anchor="middle" pointer-events="none" font-size="8px" fill="#000000" x="73.34659106015451" y="3" transform="rotate(180 73.34659106015451 0)" font-family="Helvetica Neue, Helvetica, Arial, sans-serif">HAS_GENRE</text></g><g class="relationship" transform="translate(-321.43015995254484 145.93604921677192) rotate(419.02332075174326)"><path class="b-outline" fill="#A5ABB6" stroke="none" d="M 25 0.5 L 104.2919143759602 0.5 L 104.2919143759602 -0.5 L 25 -0.5 Z M 155.9247268759602 0.5 L 235.2166412519204 0.5 L 235.2166412519204 3.5 L 242.2166412519204 0 L 235.2166412519204 -3.5 L 235.2166412519204 -0.5 L 155.9247268759602 -0.5 Z"/><text text-anchor="middle" pointer-events="none" font-size="8px" fill="#000000" x="130.1083206259602" y="3" font-family="Helvetica Neue, Helvetica, Arial, sans-serif">FEATURING</text></g><g class="relationship" transform="translate(-183.89665542298832 375.0414147012494) rotate(329.3860516627997)"><path class="b-outline" fill="#A5ABB6" stroke="none" d="M 25 0.5 L 47.19739058073792 0.5 L 47.19739058073792 -0.5 L 25 -0.5 Z M 102.54504683073792 0.5 L 124.74243741147583 0.5 L 124.74243741147583 3.5 L 131.74243741147583 0 L 124.74243741147583 -3.5 L 124.74243741147583 -0.5 L 102.54504683073792 -0.5 Z"/><text text-anchor="middle" pointer-events="none" font-size="8px" fill="#000000" x="74.87121870573792" y="3" font-family="Helvetica Neue, Helvetica, Arial, sans-serif">HAS_GENRE</text></g><g class="relationship" transform="translate(-183.89665542298832 375.0414147012494) rotate(269.53683274647256)"><path class="b-outline" fill="#A5ABB6" stroke="none" d="M 25 0.5 L 71.54239072169011 0.5 L 71.54239072169011 -0.5 L 25 -0.5 Z M 111.32754697169011 0.5 L 157.86993769338022 0.5 L 157.86993769338022 3.5 L 164.86993769338022 0 L 157.86993769338022 -3.5 L 157.86993769338022 -0.5 L 111.32754697169011 -0.5 Z"/><text text-anchor="middle" pointer-events="none" font-size="8px" fill="#000000" x="91.43496884669011" y="3" transform="rotate(180 91.43496884669011 0)" font-family="Helvetica Neue, Helvetica, Arial, sans-serif">HAS_HIT</text></g><g class="relationship" transform="translate(-183.89665542298832 375.0414147012494) rotate(299.05274839135376)"><path class="b-outline" fill="#A5ABB6" stroke="none" d="M 25 0.5 L 65.69054822010165 0.5 L 65.69054822010165 -0.5 L 25 -0.5 Z M 121.03820447010165 0.5 L 161.7287526902033 0.5 L 161.7287526902033 3.5 L 168.7287526902033 0 L 161.7287526902033 -3.5 L 161.7287526902033 -0.5 L 121.03820447010165 -0.5 Z"/><text text-anchor="middle" pointer-events="none" font-size="8px" fill="#000000" x="93.36437634510165" y="3" font-family="Helvetica Neue, Helvetica, Arial, sans-serif">HAS_GENRE</text></g><g class="relationship" transform="translate(-183.89665542298832 375.0414147012494) rotate(476.38945658547595)"><path class="b-outline" fill="#A5ABB6" stroke="none" d="M 25 0.5 L 42.088647853082364 0.5 L 42.088647853082364 -0.5 L 25 -0.5 Z M 97.43630410308236 0.5 L 114.52495195616473 0.5 L 114.52495195616473 3.5 L 121.52495195616473 0 L 114.52495195616473 -3.5 L 114.52495195616473 -0.5 L 97.43630410308236 -0.5 Z"/><text text-anchor="middle" pointer-events="none" font-size="8px" fill="#000000" x="69.76247597808236" y="3" transform="rotate(180 69.76247597808236 0)" font-family="Helvetica Neue, Helvetica, Arial, sans-serif">HAS_GENRE</text></g><g class="relationship" transform="translate(-321.43015995254484 145.93604921677192) rotate(388.7216260933614)"><path class="b-outline" fill="#A5ABB6" stroke="none" d="M 25 0.5 L 124.15103016796607 0.5 L 124.15103016796607 -0.5 L 25 -0.5 Z M 179.49868641796607 0.5 L 278.64971658593214 0.5 L 278.64971658593214 3.5 L 285.64971658593214 0 L 278.64971658593214 -3.5 L 278.64971658593214 -0.5 L 179.49868641796607 -0.5 Z"/><text text-anchor="middle" pointer-events="none" font-size="8px" fill="#000000" x="151.82485829296607" y="3" font-family="Helvetica Neue, Helvetica, Arial, sans-serif">HAS_GENRE</text></g><g class="relationship" transform="translate(-17.51904912234659 104.40231494817024) rotate(220.92158880195245)"><path class="b-outline" fill="#A5ABB6" stroke="none" d="M 25 0.5 L 26.184093450671874 0.5 L 26.184093450671874 -0.5 L 25 -0.5 Z M 77.81690595067187 0.5 L 79.00099940134375 0.5 L 79.00099940134375 3.5 L 86.00099940134375 0 L 79.00099940134375 -3.5 L 79.00099940134375 -0.5 L 77.81690595067187 -0.5 Z"/><text text-anchor="middle" pointer-events="none" font-size="8px" fill="#000000" x="52.000499700671874" y="3" transform="rotate(180 52.000499700671874 0)" font-family="Helvetica Neue, Helvetica, Arial, sans-serif">FEATURING</text></g><g class="relationship" transform="translate(37.210567309781304 434.2573643135332) rotate(194.99285485588484)"><path class="b-outline" fill="#A5ABB6" stroke="none" d="M 25 0.5 L 85.13329081500224 0.5 L 85.13329081500224 -0.5 L 25 -0.5 Z M 136.76610331500223 0.5 L 196.89939413000448 0.5 L 196.89939413000448 3.5 L 203.89939413000448 0 L 196.89939413000448 -3.5 L 196.89939413000448 -0.5 L 136.76610331500223 -0.5 Z"/><text text-anchor="middle" pointer-events="none" font-size="8px" fill="#000000" x="110.94969706500224" y="3" transform="rotate(180 110.94969706500224 0)" font-family="Helvetica Neue, Helvetica, Arial, sans-serif">FEATURING</text></g></g><g class="layer nodes"><g class="node" aria-label="graph-node160631" transform="translate(-89.8191410861273,205.68896885206874)"><circle class="b-outline" cx="0" cy="0" r="25" fill="#DA7194" stroke="#cc3c6c" stroke-width="2px"/><text class="caption" text-anchor="middle" pointer-events="none" x="0" y="0" font-size="10px" fill="#FFFFFF" font-family="Helvetica Neue, Helvetica, Arial, sans-serif"> classic</text><text class="caption" text-anchor="middle" pointer-events="none" x="0" y="10" font-size="10px" fill="#FFFFFF" font-family="Helvetica Neue, Helvetica, Arial, sans-serif">po…</text></g><g class="node" aria-label="graph-node158253" transform="translate(19.891005847632503,223.88153614082964)"><circle class="b-outline" cx="0" cy="0" r="25" fill="#DA7194" stroke="#cc3c6c" stroke-width="2px"/><text class="caption" text-anchor="middle" pointer-events="none" x="0" y="5" font-size="10px" fill="#FFFFFF" font-family="Helvetica Neue, Helvetica, Arial, sans-serif"> italian pop</text></g><g class="node" aria-label="graph-node8929" transform="translate(-321.43015995254484,145.93604921677192)"><circle class="b-outline" cx="0" cy="0" r="25" fill="#4C8EDA" stroke="#2870c2" stroke-width="2px"/><text class="caption" text-anchor="middle" pointer-events="none" x="0" y="0" font-size="10px" fill="#FFFFFF" font-family="Helvetica Neue, Helvetica, Arial, sans-serif"> Max</text><text class="caption" text-anchor="middle" pointer-events="none" x="0" y="10" font-size="10px" fill="#FFFFFF" font-family="Helvetica Neue, Helvetica, Arial, sans-serif"> Gazzè</text></g><g class="node" aria-label="graph-node161285" transform="translate(-185.43150808618398,185.17768075769087)"><circle class="b-outline" cx="0" cy="0" r="25" fill="#FFC454" stroke="#d7a013" stroke-width="2px"/><text class="caption" text-anchor="middle" pointer-events="none" x="0" y="5" font-size="10px" fill="#2A2C34" font-family="Helvetica Neue, Helvetica, Arial, sans-serif"> ITA</text></g><g class="node" aria-label="graph-node91464" transform="translate(37.210567309781304,434.2573643135332)"><circle class="b-outline" cx="0" cy="0" r="25" fill="#4C8EDA" stroke="#2870c2" stroke-width="2px"/><text class="caption" text-anchor="middle" pointer-events="none" x="0" y="5" font-size="10px" fill="#FFFFFF" font-family="Helvetica Neue, Helvetica, Arial, sans-serif"> Levante</text></g><g class="node" aria-label="graph-node159316" transform="translate(163.67288257781732,383.45913354216856)"><circle class="b-outline" cx="0" cy="0" r="25" fill="#DA7194" stroke="#cc3c6c" stroke-width="2px"/><text class="caption" text-anchor="middle" pointer-events="none" x="0" y="5" font-size="10px" fill="#FFFFFF" font-family="Helvetica Neue, Helvetica, Arial, sans-serif"> turin indie</text></g><g class="node" aria-label="graph-node156697" transform="translate(-49.0012801636008,295.2201805632116)"><circle class="b-outline" cx="0" cy="0" r="25" fill="#DA7194" stroke="#cc3c6c" stroke-width="2px"/><text class="caption" text-anchor="middle" pointer-events="none" x="0" y="0" font-size="10px" fill="#FFFFFF" font-family="Helvetica Neue, Helvetica, Arial, sans-serif"> italian</text><text class="caption" text-anchor="middle" pointer-events="none" x="0" y="10" font-size="10px" fill="#FFFFFF" font-family="Helvetica Neue, Helvetica, Arial, sans-serif">po…</text></g><g class="node" aria-label="graph-node158679" transform="translate(143.66068046267003,119.07577091651993)"><circle class="b-outline" cx="0" cy="0" r="25" fill="#DA7194" stroke="#cc3c6c" stroke-width="2px"/><text class="caption" text-anchor="middle" pointer-events="none" x="0" y="0" font-size="10px" fill="#FFFFFF" font-family="Helvetica Neue, Helvetica, Arial, sans-serif"> italian</text><text class="caption" text-anchor="middle" pointer-events="none" x="0" y="10" font-size="10px" fill="#FFFFFF" font-family="Helvetica Neue, Helvetica, Arial, sans-serif"> p…</text></g><g class="node" aria-label="graph-node7268" transform="translate(129.7568574252728,233.52461288032185)"><circle class="b-outline" cx="0" cy="0" r="25" fill="#4C8EDA" stroke="#2870c2" stroke-width="2px"/><text class="caption" text-anchor="middle" pointer-events="none" x="0" y="0" font-size="10px" fill="#FFFFFF" font-family="Helvetica Neue, Helvetica, Arial, sans-serif"> Luca</text><text class="caption" text-anchor="middle" pointer-events="none" x="0" y="10" font-size="10px" fill="#FFFFFF" font-family="Helvetica Neue, Helvetica, Arial, sans-serif"> Barba…</text></g><g class="node" aria-label="graph-node157523" transform="translate(282.4216857919953,212.92623022973166)"><circle class="b-outline" cx="0" cy="0" r="25" fill="#DA7194" stroke="#cc3c6c" stroke-width="2px"/><text class="caption" text-anchor="middle" pointer-events="none" x="0" y="0" font-size="10px" fill="#FFFFFF" font-family="Helvetica Neue, Helvetica, Arial, sans-serif"> italian</text><text class="caption" text-anchor="middle" pointer-events="none" x="0" y="10" font-size="10px" fill="#FFFFFF" font-family="Helvetica Neue, Helvetica, Arial, sans-serif"> lounge</text></g><g class="node" aria-label="graph-node10580" transform="translate(-17.51904912234659,104.40231494817024)"><circle class="b-outline" cx="0" cy="0" r="25" fill="#4C8EDA" stroke="#2870c2" stroke-width="2px"/><text class="caption" text-anchor="middle" pointer-events="none" x="0" y="0" font-size="10px" fill="#FFFFFF" font-family="Helvetica Neue, Helvetica, Arial, sans-serif"> Carl</text><text class="caption" text-anchor="middle" pointer-events="none" x="0" y="10" font-size="10px" fill="#FFFFFF" font-family="Helvetica Neue, Helvetica, Arial, sans-serif"> Brave</text></g><g class="node" aria-label="graph-node157334" transform="translate(142.91413329534342,22.027324039097913)"><circle class="b-outline" cx="0" cy="0" r="25" fill="#DA7194" stroke="#cc3c6c" stroke-width="2px"/><text class="caption" text-anchor="middle" pointer-events="none" x="0" y="5" font-size="10px" fill="#FFFFFF" font-family="Helvetica Neue, Helvetica, Arial, sans-serif"> rome indie</text></g><g class="node" aria-label="graph-node159412" transform="translate(89.19129534114725,-60.49796870738189)"><circle class="b-outline" cx="0" cy="0" r="25" fill="#DA7194" stroke="#cc3c6c" stroke-width="2px"/><text class="caption" text-anchor="middle" pointer-events="none" x="0" y="0" font-size="10px" fill="#FFFFFF" font-family="Helvetica Neue, Helvetica, Arial, sans-serif"> rap</text><text class="caption" text-anchor="middle" pointer-events="none" x="0" y="10" font-size="10px" fill="#FFFFFF" font-family="Helvetica Neue, Helvetica, Arial, sans-serif"> napol…</text></g><g class="node" aria-label="graph-node65441" transform="translate(-101.39214930982759,31.693822094598527)"><circle class="b-outline" cx="0" cy="0" r="25" fill="#4C8EDA" stroke="#2870c2" stroke-width="2px"/><text class="caption" text-anchor="middle" pointer-events="none" x="0" y="5" font-size="10px" fill="#FFFFFF" font-family="Helvetica Neue, Helvetica, Arial, sans-serif">Mi…</text></g><g class="node" aria-label="graph-node161255" transform="translate(43.5736274017205,26.14479422651499)"><circle class="b-outline" cx="0" cy="0" r="25" fill="#FFC454" stroke="#d7a013" stroke-width="2px"/><text class="caption" text-anchor="middle" pointer-events="none" x="0" y="5" font-size="10px" fill="#2A2C34" font-family="Helvetica Neue, Helvetica, Arial, sans-serif"> EST</text></g><g class="node" aria-label="graph-node159993" transform="translate(-238.52498416107213,89.46628762179287)"><circle class="b-outline" cx="0" cy="0" r="25" fill="#DA7194" stroke="#cc3c6c" stroke-width="2px"/><text class="caption" text-anchor="middle" pointer-events="none" x="0" y="0" font-size="10px" fill="#FFFFFF" font-family="Helvetica Neue, Helvetica, Arial, sans-serif"> italian pop</text><text class="caption" text-anchor="middle" pointer-events="none" x="0" y="10" font-size="10px" fill="#FFFFFF" font-family="Helvetica Neue, Helvetica, Arial, sans-serif"> rock</text></g><g class="node" aria-label="graph-node161291" transform="translate(-8.47342604828847,-72.71559872283922)"><circle class="b-outline" cx="0" cy="0" r="25" fill="#FFC454" stroke="#d7a013" stroke-width="2px"/><text class="caption" text-anchor="middle" pointer-events="none" x="0" y="5" font-size="10px" fill="#2A2C34" font-family="Helvetica Neue, Helvetica, Arial, sans-serif"> LUX</text></g><g class="node" aria-label="graph-node161292" transform="translate(-52.40421489329064,-160.49909059231769)"><circle class="b-outline" cx="0" cy="0" r="25" fill="#FFC454" stroke="#d7a013" stroke-width="2px"/><text class="caption" text-anchor="middle" pointer-events="none" x="0" y="5" font-size="10px" fill="#2A2C34" font-family="Helvetica Neue, Helvetica, Arial, sans-serif"> LTU</text></g><g class="node" aria-label="graph-node161283" transform="translate(-108.43795695192352,-81.0597871119712)"><circle class="b-outline" cx="0" cy="0" r="25" fill="#FFC454" stroke="#d7a013" stroke-width="2px"/><text class="caption" text-anchor="middle" pointer-events="none" x="0" y="5" font-size="10px" fill="#2A2C34" font-family="Helvetica Neue, Helvetica, Arial, sans-serif"> CHE</text></g><g class="node" aria-label="graph-node161315" transform="translate(-151.43018002908727,-167.13536051684716)"><circle class="b-outline" cx="0" cy="0" r="25" fill="#FFC454" stroke="#d7a013" stroke-width="2px"/><text class="caption" text-anchor="middle" pointer-events="none" x="0" y="5" font-size="10px" fill="#2A2C34" font-family="Helvetica Neue, Helvetica, Arial, sans-serif"> SWE</text></g><g class="node" aria-label="graph-node161279" transform="translate(-208.04979787788287,-87.89065439558986)"><circle class="b-outline" cx="0" cy="0" r="25" fill="#FFC454" stroke="#d7a013" stroke-width="2px"/><text class="caption" text-anchor="middle" pointer-events="none" x="0" y="5" font-size="10px" fill="#2A2C34" font-family="Helvetica Neue, Helvetica, Arial, sans-serif"> ISL</text></g><g class="node" aria-label="graph-node161297" transform="translate(-264.15884846963934,-5.96748276198324)"><circle class="b-outline" cx="0" cy="0" r="25" fill="#FFC454" stroke="#d7a013" stroke-width="2px"/><text class="caption" text-anchor="middle" pointer-events="none" x="0" y="5" font-size="10px" fill="#2A2C34" font-family="Helvetica Neue, Helvetica, Arial, sans-serif"> MLT</text></g><g class="node" aria-label="graph-node144546" transform="translate(-156.66066479741835,279.59773625934895)"><circle class="b-outline" cx="0" cy="0" r="25" fill="#4C8EDA" stroke="#2870c2" stroke-width="2px"/><text class="caption" text-anchor="middle" pointer-events="none" x="0" y="5" font-size="10px" fill="#FFFFFF" font-family="Helvetica Neue, Helvetica, Arial, sans-serif"> Caparez…</text></g><g class="node" aria-label="graph-node160937" transform="translate(-306.48631674222884,313.8594970077253)"><circle class="b-outline" cx="0" cy="0" r="25" fill="#DA7194" stroke="#cc3c6c" stroke-width="2px"/><text class="caption" text-anchor="middle" pointer-events="none" x="0" y="0" font-size="10px" fill="#FFFFFF" font-family="Helvetica Neue, Helvetica, Arial, sans-serif"> italian</text><text class="caption" text-anchor="middle" pointer-events="none" x="0" y="10" font-size="10px" fill="#FFFFFF" font-family="Helvetica Neue, Helvetica, Arial, sans-serif"> reggae</text></g><g class="node" aria-label="graph-node75685" transform="translate(-183.89665542298832,375.0414147012494)"><circle class="b-outline" cx="0" cy="0" r="25" fill="#4C8EDA" stroke="#2870c2" stroke-width="2px"/><text class="caption" text-anchor="middle" pointer-events="none" x="0" y="0" font-size="10px" fill="#FFFFFF" font-family="Helvetica Neue, Helvetica, Arial, sans-serif"> Carmen</text><text class="caption" text-anchor="middle" pointer-events="none" x="0" y="10" font-size="10px" fill="#FFFFFF" font-family="Helvetica Neue, Helvetica, Arial, sans-serif"> Consoli</text></g><g class="node" aria-label="graph-node160247" transform="translate(-249.02265139934204,506.2975238689538)"><circle class="b-outline" cx="0" cy="0" r="25" fill="#DA7194" stroke="#cc3c6c" stroke-width="2px"/><text class="caption" text-anchor="middle" pointer-events="none" x="0" y="0" font-size="10px" fill="#FFFFFF" font-family="Helvetica Neue, Helvetica, Arial, sans-serif"> italian</text><text class="caption" text-anchor="middle" pointer-events="none" x="0" y="10" font-size="10px" fill="#FFFFFF" font-family="Helvetica Neue, Helvetica, Arial, sans-serif"> altern…</text></g></g></svg>